<?xml version="1.0" encoding="UTF-8" standalone="no"?>
<!-- Created with Inkscape (http://www.inkscape.org/) -->

<svg
   xmlns:dc="http://purl.org/dc/elements/1.1/"
   xmlns:cc="http://creativecommons.org/ns#"
   xmlns:rdf="http://www.w3.org/1999/02/22-rdf-syntax-ns#"
   xmlns:svg="http://www.w3.org/2000/svg"
   xmlns="http://www.w3.org/2000/svg"
   xmlns:xlink="http://www.w3.org/1999/xlink"
   xmlns:sodipodi="http://sodipodi.sourceforge.net/DTD/sodipodi-0.dtd"
   xmlns:inkscape="http://www.inkscape.org/namespaces/inkscape"
   version="1.0"
   width="55"
   height="55"
   id="svg2"
   inkscape:version="0.47 r22583"
   sodipodi:docname="arduinooff.svg">
  <metadata
     id="metadata20">
    <rdf:RDF>
      <cc:Work
         rdf:about="">
        <dc:format>image/svg+xml</dc:format>
        <dc:type
           rdf:resource="http://purl.org/dc/dcmitype/StillImage" />
        <dc:title />
      </cc:Work>
    </rdf:RDF>
  </metadata>
  <sodipodi:namedview
     pagecolor="#ffffff"
     bordercolor="#666666"
     borderopacity="1"
     objecttolerance="10"
     gridtolerance="10"
     guidetolerance="10"
     inkscape:pageopacity="0"
     inkscape:pageshadow="2"
     inkscape:window-width="699"
     inkscape:window-height="491"
     id="namedview18"
     showgrid="false"
     inkscape:zoom="2.1454545"
     inkscape:cx="53.805541"
     inkscape:cy="15.667423"
     inkscape:window-x="712"
     inkscape:window-y="143"
     inkscape:window-maximized="0"
     inkscape:current-layer="svg2" />
  <defs
     id="defs5">
    <inkscape:perspective
       sodipodi:type="inkscape:persp3d"
       inkscape:vp_x="0 : 27.5 : 1"
       inkscape:vp_y="0 : 1000 : 0"
       inkscape:vp_z="55 : 27.5 : 1"
       inkscape:persp3d-origin="27.5 : 18.333333 : 1"
       id="perspective22" />
    <linearGradient
       x1="0"
       y1="22"
       x2="74"
       y2="22"
       id="linearGradient2431"
       xlink:href="#linearGradient3166"
       gradientUnits="userSpaceOnUse"
       gradientTransform="matrix(0.3333,0,0,0.3333,27.031478,32.193732)" />
    <linearGradient
       x1="0"
       y1="22"
       x2="74"
       y2="22"
       id="linearGradient2428"
       xlink:href="#linearGradient3166"
       gradientUnits="userSpaceOnUse"
       gradientTransform="matrix(0.3333,0,0,0.3333,27.031478,45.064925)" />
    <linearGradient
       x1="0"
       y1="22"
       x2="74"
       y2="22"
       id="linearGradient3172"
       xlink:href="#linearGradient3166"
       gradientUnits="userSpaceOnUse" />
    <linearGradient
       id="linearGradient3166">
      <stop
         id="stop3168"
         style="stop-color:#ffffff;stop-opacity:1"
         offset="0" />
      <stop
         id="stop3170"
         style="stop-color:#ffff00;stop-opacity:1"
         offset="1" />
    </linearGradient>
    <linearGradient
       x1="0"
       y1="22"
       x2="74"
       y2="22"
       id="linearGradient2557"
       xlink:href="#linearGradient3166"
       gradientUnits="userSpaceOnUse"
       gradientTransform="matrix(0.3333,0,0,0.3333,9.2560985,9.9123239)" />
    <linearGradient
       x1="0"
       y1="22"
       x2="74"
       y2="22"
       id="linearGradient2561"
       xlink:href="#linearGradient3166"
       gradientUnits="userSpaceOnUse"
       gradientTransform="matrix(0.3333,0,0,0.3333,8.962951,22.783517)" />
    <linearGradient
       x1="0"
       y1="22"
       x2="74"
       y2="22"
       id="linearGradient2461"
       xlink:href="#linearGradient3166"
       gradientUnits="userSpaceOnUse"
       gradientTransform="matrix(0.3333,0,0,0.3333,27.031478,32.193732)" />
    <linearGradient
       x1="0"
       y1="22"
       x2="74"
       y2="22"
       id="linearGradient2463"
       xlink:href="#linearGradient3166"
       gradientUnits="userSpaceOnUse"
       gradientTransform="matrix(0.3333,0,0,0.3333,27.031478,45.064925)" />
    <inkscape:perspective
       id="perspective3629"
       inkscape:persp3d-origin="0.5 : 0.33333333 : 1"
       inkscape:vp_z="1 : 0.5 : 1"
       inkscape:vp_y="0 : 1000 : 0"
       inkscape:vp_x="0 : 0.5 : 1"
       sodipodi:type="inkscape:persp3d" />
    <inkscape:perspective
       id="perspective3678"
       inkscape:persp3d-origin="0.5 : 0.33333333 : 1"
       inkscape:vp_z="1 : 0.5 : 1"
       inkscape:vp_y="0 : 1000 : 0"
       inkscape:vp_x="0 : 0.5 : 1"
       sodipodi:type="inkscape:persp3d" />
    <inkscape:perspective
       id="perspective3692"
       inkscape:persp3d-origin="0.5 : 0.33333333 : 1"
       inkscape:vp_z="1 : 0.5 : 1"
       inkscape:vp_y="0 : 1000 : 0"
       inkscape:vp_x="0 : 0.5 : 1"
       sodipodi:type="inkscape:persp3d" />
    <inkscape:perspective
       id="perspective3720"
       inkscape:persp3d-origin="0.5 : 0.33333333 : 1"
       inkscape:vp_z="1 : 0.5 : 1"
       inkscape:vp_y="0 : 1000 : 0"
       inkscape:vp_x="0 : 0.5 : 1"
       sodipodi:type="inkscape:persp3d" />
    <inkscape:perspective
       id="perspective3734"
       inkscape:persp3d-origin="0.5 : 0.33333333 : 1"
       inkscape:vp_z="1 : 0.5 : 1"
       inkscape:vp_y="0 : 1000 : 0"
       inkscape:vp_x="0 : 0.5 : 1"
       sodipodi:type="inkscape:persp3d" />
    <inkscape:perspective
       id="perspective3641"
       inkscape:persp3d-origin="0.5 : 0.33333333 : 1"
       inkscape:vp_z="1 : 0.5 : 1"
       inkscape:vp_y="0 : 1000 : 0"
       inkscape:vp_x="0 : 0.5 : 1"
       sodipodi:type="inkscape:persp3d" />
    <filter
       id="filter3649"
       inkscape:label="Invert"
       x="0"
       y="0"
       width="1"
       height="1"
       inkscape:menu="Color"
       inkscape:menu-tooltip="Invert colors"
       color-interpolation-filters="sRGB">
      <feColorMatrix
         id="feColorMatrix3651"
         type="saturate"
         values="1"
         result="fbSourceGraphic" />
      <feColorMatrix
         id="feColorMatrix3653"
         in="fbSourceGraphic"
         values="-1 0 0 0 1 0 -1 0 0 1 0 0 -1 0 1 0 0 0 1 0 " />
    </filter>
    <inkscape:perspective
       id="perspective3786"
       inkscape:persp3d-origin="0.5 : 0.33333333 : 1"
       inkscape:vp_z="1 : 0.5 : 1"
       inkscape:vp_y="0 : 1000 : 0"
       inkscape:vp_x="0 : 0.5 : 1"
       sodipodi:type="inkscape:persp3d" />
  </defs>
  <path
     style="fill:#000000;filter:url(#filter3649)"
     d="m 7.9427529,35.822705 0,-9.052609 -1.7718118,0 -1.7718117,0 0,-4.208098 c 0,-2.314454 0.056937,-4.351291 0.1265259,-4.526305 0.1005874,-0.252972 0.463818,-0.318206 1.7718118,-0.318206 l 1.6452858,0 0,-2.715783 0,-2.715783 20.4958361,0 20.495834,0 0.453234,0.465596 c 0.428647,0.440341 0.453232,0.651084 0.453232,3.885161 l 0,3.419564 0.625345,0.578197 0.625345,0.578196 0,10.382329 0,10.382329 -0.833794,0.785746 c -0.639538,0.602685 -0.833793,0.940273 -0.833793,1.449011 l 0,0.663265 -20.74062,0 -20.7406191,0 0,-9.05261 z m 39.8136511,7.182331 c 0,-0.274043 0.339321,-0.781864 0.833794,-1.247842 l 0.833794,-0.785747 0,-9.319681 0,-9.319682 -0.72957,-0.618201 -0.729569,-0.618201 0,-3.235192 c 0,-3.044779 -0.02668,-3.262597 -0.453232,-3.700789 l -0.453234,-0.465596 -18.619798,0 -18.6198002,0 0,2.916952 0,2.916952 -1.8760359,0 -1.876036,0 0,2.816367 0,2.816367 1.6675875,0 1.6675875,0 0,9.153194 0,9.153194 19.1772561,0 19.177256,0 0,-0.462095 z M 28.135661,42.730325 c -0.224113,-0.262019 -0.22936,-0.352891 -0.02422,-0.41952 0.144023,-0.04678 0.220432,-0.149742 0.1698,-0.228806 -0.05063,-0.07906 0.117625,-0.143753 0.373908,-0.143753 0.343359,0 0.465968,0.118328 0.465968,0.449695 0,0.247334 -0.07504,0.404938 -0.166759,0.350232 -0.09172,-0.0547 -0.166759,-0.0036 -0.166759,0.113578 0,0.318342 -0.328043,0.257243 -0.651935,-0.121426 z m 1.902626,0.121426 c 0,-0.117173 -0.07504,-0.168282 -0.166759,-0.113578 -0.09172,0.05471 -0.166758,-0.102898 -0.166758,-0.350232 0,-0.331367 0.122609,-0.449695 0.465967,-0.449695 0.256283,0 0.41959,0.07242 0.362905,0.160935 -0.05668,0.08852 0.0142,0.160935 0.157529,0.160935 0.147489,0 0.08498,0.137441 -0.144034,0.316673 -0.222544,0.174168 -0.27288,0.250709 -0.111858,0.170086 0.192479,-0.09637 0.241819,-0.06703 0.144034,0.08567 -0.186376,0.291033 -0.541026,0.303625 -0.541026,0.01921 z m 1.459139,0 c 0,-0.117173 -0.07035,-0.17108 -0.156336,-0.119794 -0.08599,0.05129 -0.156337,-0.109235 -0.156337,-0.356713 0,-0.349683 0.113005,-0.444134 0.507068,-0.42382 0.593307,0.03059 0.785102,0.39979 0.425135,0.818379 -0.296312,0.344564 -0.61953,0.387318 -0.61953,0.08195 z m 1.250691,-0.141712 c -0.38138,-0.41404 -0.381807,-0.423362 -0.02904,-0.633773 0.364672,-0.21751 1.069947,-0.04258 1.011713,0.250934 -0.04436,0.223586 -0.474758,0.744587 -0.603002,0.72994 -0.03685,-0.0042 -0.207704,-0.160404 -0.379674,-0.347101 z m 1.559307,0.09564 c -0.340055,-0.390149 -0.238282,-0.847316 0.188627,-0.847316 0.219767,0 0.471222,0.204023 0.570423,0.462828 0.113162,0.295219 0.102938,0.418409 -0.02823,0.340172 -0.113102,-0.06746 -0.205641,-0.02679 -0.205641,0.09039 0,0.281142 -0.259845,0.258347 -0.525177,-0.04607 z m 1.332381,-0.07535 c -0.224113,-0.262019 -0.22936,-0.352891 -0.02422,-0.41952 0.144024,-0.04678 0.220433,-0.149742 0.1698,-0.228806 -0.05063,-0.07906 0.117626,-0.143753 0.373909,-0.143753 0.343358,0 0.465968,0.118328 0.465968,0.449695 0,0.247334 -0.07504,0.404938 -0.166759,0.350232 -0.09172,-0.0547 -0.166759,-0.0036 -0.166759,0.113578 0,0.318342 -0.328043,0.257243 -0.651935,-0.121426 z m 3.361765,0.121426 c 0,-0.117173 -0.07035,-0.17108 -0.156336,-0.119794 -0.08599,0.05129 -0.156337,-0.109235 -0.156337,-0.356713 0,-0.349683 0.113004,-0.444134 0.507068,-0.42382 0.593306,0.03059 0.785102,0.39979 0.425134,0.818379 -0.296311,0.344564 -0.619529,0.387318 -0.619529,0.08195 z m 1.25069,-0.141712 c -0.381379,-0.41404 -0.381806,-0.423362 -0.02904,-0.633773 0.364672,-0.21751 1.069947,-0.04258 1.011712,0.250934 -0.04436,0.223586 -0.474758,0.744587 -0.603001,0.72994 -0.03685,-0.0042 -0.207705,-0.160404 -0.379675,-0.347101 z m 1.559307,0.09564 c -0.340054,-0.390149 -0.238281,-0.847316 0.188627,-0.847316 0.219768,0 0.471223,0.204023 0.570424,0.462828 0.113162,0.295219 0.102938,0.418409 -0.02823,0.340172 -0.113102,-0.06746 -0.20564,-0.02679 -0.20564,0.09039 0,0.281142 -0.259846,0.258347 -0.525178,-0.04607 z m 1.332382,-0.07535 c -0.224113,-0.262019 -0.22936,-0.352891 -0.02422,-0.41952 0.144023,-0.04678 0.220432,-0.149742 0.1698,-0.228806 -0.05063,-0.07906 0.117625,-0.143753 0.373909,-0.143753 0.343358,0 0.465967,0.118328 0.465967,0.449695 0,0.247334 -0.07504,0.404938 -0.166758,0.350232 -0.09172,-0.0547 -0.166759,-0.0036 -0.166759,0.113578 0,0.318342 -0.328044,0.257243 -0.651935,-0.121426 z m 1.902625,0.121426 c 0,-0.117173 -0.07504,-0.168282 -0.166758,-0.113578 -0.09172,0.05471 -0.166759,-0.102898 -0.166759,-0.350232 0,-0.331367 0.122609,-0.449695 0.465968,-0.449695 0.256283,0 0.42454,0.06469 0.373908,0.143753 -0.05063,0.07906 0.02578,0.182026 0.1698,0.228806 0.205136,0.06663 0.19989,0.157501 -0.02422,0.41952 -0.323891,0.378669 -0.651935,0.439768 -0.651935,0.121426 z m 1.45914,0.01676 c 0,-0.126394 -0.07035,-0.187846 -0.156337,-0.136559 -0.08598,0.05129 -0.156336,-0.113092 -0.156336,-0.365285 0,-0.470159 0.194801,-0.530739 0.709665,-0.220693 0.21654,0.1304 0.249283,0.102737 0.125755,-0.106241 -0.136709,-0.231278 -0.115037,-0.235915 0.119445,-0.02555 0.209913,0.188329 0.22803,0.346387 0.0678,0.591534 -0.269068,0.411672 -0.709992,0.574873 -0.709992,0.262799 z m 0.99013,-2.864052 c -0.200632,-0.19775 -0.364785,-0.484251 -0.364785,-0.636668 0,-0.341187 0.50877,-0.774171 0.696637,-0.592866 0.07543,0.0728 0.137157,0.01567 0.137157,-0.126962 0,-0.184653 0.07503,-0.199233 0.26056,-0.05063 0.143308,0.114781 0.330912,0.216392 0.416897,0.2258 0.08599,0.0094 0.132886,0.06567 0.104224,0.125029 -0.02866,0.05936 0.08035,0.186932 0.242255,0.283498 0.248589,0.148271 0.240485,0.227576 -0.05211,0.509955 -0.190564,0.183909 -0.346479,0.412813 -0.346479,0.508676 0,0.293834 -0.708241,0.134739 -1.094354,-0.245828 z m -22.043423,-5.589934 0,-1.609353 10.995655,-1.21e-4 10.995655,-1.2e-4 -0.02026,0.673687 c -0.01115,0.370527 -0.08302,0.771694 -0.159736,0.891481 -0.07671,0.119786 -0.05978,0.265325 0.03762,0.323421 0.0974,0.0581 0.135185,0.381193 0.08396,0.717993 l -0.09313,0.612364 -10.919884,0 -10.919884,0 0,-1.609352 z M 47.495844,24.138134 c -0.200632,-0.212066 -0.364785,-0.482567 -0.364785,-0.601113 0,-0.251104 0.623782,-0.899957 0.628536,-0.653799 0.0017,0.09089 0.09556,0.02946 0.208449,-0.136508 0.182451,-0.268225 0.227574,-0.268225 0.406103,0 0.110463,0.165965 0.251166,0.279122 0.312673,0.251461 0.06151,-0.02766 0.08838,-0.0017 0.05971,0.05763 -0.02866,0.05936 0.08859,0.195146 0.260561,0.301754 0.27793,0.172295 0.27793,0.215841 0,0.39192 -0.17197,0.108949 -0.230836,0.199475 -0.130814,0.201169 0.100024,0.0017 0.06509,0.13887 -0.07764,0.304834 -0.345159,0.401369 -0.855547,0.355396 -1.302802,-0.117348 z M 17.948278,15.705796 c 0,-0.110643 -0.07035,-0.178538 -0.156337,-0.150877 -0.08599,0.02766 -0.156336,-0.0209 -0.156336,-0.107922 0,-0.08702 -0.132465,-0.237224 -0.294366,-0.33379 -0.24859,-0.148271 -0.240485,-0.227575 0.05211,-0.509954 0.190563,-0.183909 0.346478,-0.418439 0.346478,-0.521179 0,-0.327275 0.610639,-0.200994 1.042243,0.215538 0.229293,0.221286 0.416896,0.527043 0.416896,0.67946 0,0.341188 -0.508769,0.774172 -0.696636,0.592866 -0.07544,-0.0728 -0.137157,-0.02675 -0.137157,0.102329 0,0.129084 -0.0938,0.234698 -0.208449,0.234698 -0.114646,0 -0.208448,-0.09053 -0.208448,-0.201169 z m 4.802094,-0.564306 c -0.224663,-0.232103 -0.237556,-0.334094 -0.04987,-0.394472 0.139225,-0.04479 0.212537,-0.144827 0.162917,-0.222311 -0.04962,-0.07748 0.0905,-0.14088 0.311374,-0.14088 0.403722,0 0.431948,0.03818 0.479761,0.648992 0.0343,0.438126 -0.520721,0.504832 -0.904182,0.108671 z m 1.59862,0.208978 c -0.169148,-0.30599 0.179658,-0.953355 0.527953,-0.979851 0.199398,-0.01517 0.316067,0.04499 0.259262,0.133695 -0.0568,0.0887 0.01372,0.198912 0.156718,0.244914 0.194818,0.06267 0.180835,0.155235 -0.05578,0.369228 -0.370876,0.335423 -0.772934,0.440453 -0.888156,0.232014 z m 1.497166,0.02611 c -0.01274,-0.04021 -0.03358,-0.274287 -0.04632,-0.52016 -0.01799,-0.34742 0.09168,-0.447042 0.49217,-0.447042 0.409176,0 0.51533,0.102447 0.51533,0.497334 0,0.374879 -0.115482,0.502955 -0.469009,0.520161 -0.257955,0.01255 -0.479431,-0.01008 -0.492169,-0.05029 z m 1.410289,-0.02282 c -0.264038,-0.412301 0.01888,-0.944386 0.502138,-0.944386 0.677932,0 0.726697,0.962833 0.05351,1.056465 -0.244364,0.03399 -0.494404,-0.01645 -0.555646,-0.112079 z m 1.538929,-0.212269 c -0.224662,-0.232103 -0.237556,-0.334094 -0.04987,-0.394472 0.139224,-0.04479 0.210001,-0.148788 0.15728,-0.231112 -0.05272,-0.08232 0.108243,-0.13517 0.357696,-0.117434 0.326313,0.0232 0.45355,0.163625 0.45355,0.500552 0,0.554903 -0.49084,0.684453 -0.918657,0.242466 z m 1.459139,0 c -0.224662,-0.232103 -0.237556,-0.334094 -0.04987,-0.394472 0.139224,-0.04479 0.212538,-0.144827 0.162917,-0.222311 -0.04962,-0.07748 0.0905,-0.14088 0.311374,-0.14088 0.403721,0 0.431949,0.03818 0.47976,0.648992 0.0343,0.438126 -0.52072,0.504832 -0.904182,0.108671 z m 1.59862,0.208978 c -0.169148,-0.30599 0.17966,-0.953355 0.527954,-0.979851 0.199398,-0.01517 0.316066,0.04499 0.259262,0.133695 -0.0568,0.0887 0.01372,0.198912 0.156718,0.244914 0.194818,0.06267 0.180835,0.155235 -0.05578,0.369228 -0.370878,0.335423 -0.772935,0.440453 -0.888157,0.232014 z m 1.497166,0.02611 c -0.01274,-0.04021 -0.03358,-0.274287 -0.04632,-0.52016 -0.01801,-0.34742 0.09168,-0.447042 0.49217,-0.447042 0.409176,0 0.51533,0.102447 0.51533,0.497334 0,0.374879 -0.115482,0.502955 -0.469009,0.520161 -0.257955,0.01255 -0.479431,-0.01008 -0.49217,-0.05029 z m 2.323873,-0.235085 c -0.224661,-0.232103 -0.237556,-0.334094 -0.04987,-0.394472 0.139225,-0.04479 0.212538,-0.144827 0.162917,-0.222311 -0.04962,-0.07748 0.0905,-0.14088 0.311374,-0.14088 0.359938,0 0.518021,0.391238 0.34948,0.864924 -0.09375,0.263496 -0.464808,0.212069 -0.773902,-0.107261 z m 1.604376,0.208978 c -0.06802,-0.132375 -0.06403,-0.241935 0.02938,-0.808579 0.01432,-0.08693 0.206773,-0.158062 0.427649,-0.158062 0.220876,0 0.360995,0.0634 0.311374,0.14088 -0.04962,0.07748 0.02678,0.178517 0.169779,0.224519 0.194818,0.06267 0.180835,0.155235 -0.05578,0.369228 -0.370106,0.334726 -0.774938,0.441171 -0.882401,0.232014 z m 1.491411,0.05357 c -0.152578,-0.662622 -0.02387,-0.976566 0.413099,-1.007634 0.574848,-0.04087 0.808584,0.39039 0.407026,0.751003 -0.304976,0.273879 -0.781798,0.423085 -0.820125,0.256631 z m 1.459139,0.01399 c -0.150404,-0.744034 -0.03495,-1.00866 0.440057,-1.00866 0.704245,0 0.747004,0.961975 0.04707,1.058953 -0.25518,0.03536 -0.474389,0.01272 -0.487127,-0.05029 z m 1.586136,-0.113969 c 0.07107,-0.110976 0.023,-0.201776 -0.106819,-0.201776 -0.129818,0 -0.204924,-0.155906 -0.166899,-0.346457 0.04311,-0.216035 0.262476,-0.346458 0.582728,-0.346458 0.712662,0 0.746512,0.921977 0.03768,1.026375 -0.279977,0.04124 -0.42271,-0.01298 -0.346691,-0.131684 z m 1.363082,-0.162574 c -0.224662,-0.232103 -0.237556,-0.334094 -0.04987,-0.394472 0.139224,-0.04479 0.212538,-0.144827 0.162917,-0.222311 -0.04962,-0.07748 0.0905,-0.14088 0.311374,-0.14088 0.359938,0 0.518021,0.391238 0.34948,0.864923 -0.09375,0.263497 -0.464809,0.21207 -0.773902,-0.10726 z m 1.604375,0.208978 c -0.06801,-0.132375 -0.06403,-0.241935 0.02938,-0.808579 0.01432,-0.08693 0.206773,-0.158062 0.427649,-0.158062 0.220876,0 0.360995,0.0634 0.311374,0.14088 -0.04962,0.07748 0.02678,0.178517 0.169779,0.224519 0.194818,0.06267 0.180835,0.155235 -0.05578,0.369228 -0.370106,0.334726 -0.774938,0.441171 -0.882402,0.232014 z m 1.491411,0.05357 c -0.148782,-0.646134 -0.02254,-0.97666 0.384069,-1.00557 0.249452,-0.01774 0.410416,0.03511 0.357695,0.117434 -0.05272,0.08232 0.02114,0.187318 0.164143,0.23332 0.194818,0.06267 0.180835,0.155235 -0.05578,0.369228 -0.329177,0.297711 -0.810135,0.459281 -0.85013,0.285588 z"
     id="path3647"
     transform="matrix(0.89019384,0,0,1.0286045,3.7457634,-1.9827886)" />
</svg>
