<?xml version="1.0" encoding="UTF-8" standalone="no"?>
<!-- Created with Inkscape (http://www.inkscape.org/) -->

<svg
   xmlns:dc="http://purl.org/dc/elements/1.1/"
   xmlns:cc="http://creativecommons.org/ns#"
   xmlns:rdf="http://www.w3.org/1999/02/22-rdf-syntax-ns#"
   xmlns:svg="http://www.w3.org/2000/svg"
   xmlns="http://www.w3.org/2000/svg"
   xmlns:sodipodi="http://sodipodi.sourceforge.net/DTD/sodipodi-0.dtd"
   xmlns:inkscape="http://www.inkscape.org/namespaces/inkscape"
   id="svg2"
   version="1.1"
   inkscape:version="0.47 r22583"
   width="55"
   height="55"
   sodipodi:docname="prueba1.svg">
  <metadata
     id="metadata8">
    <rdf:RDF>
      <cc:Work
         rdf:about="">
        <dc:format>image/svg+xml</dc:format>
        <dc:type
           rdf:resource="http://purl.org/dc/dcmitype/StillImage" />
        <dc:title />
      </cc:Work>
    </rdf:RDF>
  </metadata>
  <defs
     id="defs6">
    <inkscape:perspective
       sodipodi:type="inkscape:persp3d"
       inkscape:vp_x="0 : 0.5 : 1"
       inkscape:vp_y="0 : 1000 : 0"
       inkscape:vp_z="1 : 0.5 : 1"
       inkscape:persp3d-origin="0.5 : 0.33333333 : 1"
       id="perspective10" />
    <inkscape:perspective
       id="perspective2864"
       inkscape:persp3d-origin="0.5 : 0.33333333 : 1"
       inkscape:vp_z="1 : 0.5 : 1"
       inkscape:vp_y="0 : 1000 : 0"
       inkscape:vp_x="0 : 0.5 : 1"
       sodipodi:type="inkscape:persp3d" />
  </defs>
  <sodipodi:namedview
     pagecolor="#ffffff"
     bordercolor="#666666"
     borderopacity="1"
     objecttolerance="10"
     gridtolerance="10"
     guidetolerance="10"
     inkscape:pageopacity="0"
     inkscape:pageshadow="2"
     inkscape:window-width="1366"
     inkscape:window-height="706"
     id="namedview4"
     showgrid="false"
     inkscape:zoom="6.2415772"
     inkscape:cx="71.377749"
     inkscape:cy="32.641672"
     inkscape:window-x="-8"
     inkscape:window-y="-8"
     inkscape:window-maximized="1"
     inkscape:current-layer="svg2" />
  <rect
     width="55"
     height="55"
     rx="0"
     x="0"
     y="0"
     id="rect2839"
     style="fill:#ffd200;fill-opacity:1;fill-rule:evenodd;stroke:none" />
  <path
     style="fill:#000000"
     d="M 10.409666,39.488947 C 9.7062373,39.29498 8.5210023,38.839242 7.7758113,38.476194 5.885794,37.555407 2.9418111,34.563353 2.0416013,32.648353 -1.5823331,24.939213 3.3437367,16.253782 12.1045,14.905889 c 4.345897,-0.668642 8.914427,0.955332 12.448729,4.425145 1.034134,1.015265 2.143395,2.22022 2.465025,2.677679 l 0.584784,0.831744 0.46734,-0.69312 c 0.257039,-0.381216 1.417956,-1.628832 2.579817,-2.772478 4.786482,-4.711444 11.017362,-5.922136 16.526161,-3.211115 4.472005,2.200788 7.083436,6.255483 7.097479,11.020061 0.01088,3.692498 -1.046875,6.285278 -3.609701,8.848105 -4.011222,4.011223 -10.071309,5.007327 -15.549491,2.555892 -1.906561,-0.853166 -4.511028,-2.95288 -6.1152,-4.930059 l -1.446571,-1.782929 -0.747994,1.027777 c -2.130704,2.927688 -5.791006,5.548418 -9.136431,6.541564 -1.785086,0.529934 -5.41811,0.552353 -7.258781,0.04479 z m 5.167677,-4.058515 c 3.201854,-0.591896 5.951129,-2.593585 8.316014,-6.054715 l 1.315344,-1.925072 -0.77752,-1.334727 c -1.28193,-2.200622 -4.166842,-4.983922 -6.206808,-5.988195 -1.614321,-0.794727 -2.067289,-0.890881 -4.173308,-0.885892 -3.065013,0.0073 -4.7369307,0.715761 -6.6635222,2.82376 -4.3864223,4.799445 -1.6107219,12.272609 4.9721492,13.386777 0.698318,0.118194 1.340328,0.229569 1.426688,0.247505 0.08636,0.01793 0.892292,-0.103314 1.790963,-0.269441 z m -5.136331,-8.015386 0,-1.108991 3.88147,0 3.88147,0 0,1.108991 0,1.108991 -3.88147,0 -3.88147,0 0,-1.108991 z m 33.563395,7.744179 c 2.619577,-0.667297 5.219726,-3.474586 5.817329,-6.280767 0.836953,-3.930112 -1.903967,-8.194191 -6.040064,-9.396588 -4.465385,-1.298121 -9.499605,1.131704 -12.69544,6.1276 l -1.043606,1.631416 0.644283,1.214484 c 1.034524,1.950101 3.911273,4.853614 5.813294,5.867379 2.535465,1.351392 4.585685,1.579922 7.504204,0.836476 z m -4.45237,-5.248948 0,-1.38624 -1.38624,0 -1.386239,0 0,-1.108991 0,-1.108991 1.386239,0 1.38624,0 0,-1.386239 0,-1.38624 1.247615,0 1.247615,0 0,1.38624 0,1.386239 1.386239,0 1.38624,0 0,1.108991 0,1.108991 -1.38624,0 -1.386239,0 0,1.38624 0,1.38624 -1.247615,0 -1.247615,0 0,-1.38624 z"
     id="path2818" />
</svg>
