<?xml version="1.0" encoding="UTF-8" standalone="no"?>
<!-- Created with Inkscape (http://www.inkscape.org/) -->

<svg
   xmlns:dc="http://purl.org/dc/elements/1.1/"
   xmlns:cc="http://creativecommons.org/ns#"
   xmlns:rdf="http://www.w3.org/1999/02/22-rdf-syntax-ns#"
   xmlns:svg="http://www.w3.org/2000/svg"
   xmlns="http://www.w3.org/2000/svg"
   xmlns:sodipodi="http://sodipodi.sourceforge.net/DTD/sodipodi-0.dtd"
   xmlns:inkscape="http://www.inkscape.org/namespaces/inkscape"
   version="1.0"
   width="55"
   height="55"
   id="svg2"
   inkscape:version="0.48.3.1 r9886"
   sodipodi:docname="flowoff.svg">
  <sodipodi:namedview
     pagecolor="#ffffff"
     bordercolor="#666666"
     borderopacity="1"
     objecttolerance="10"
     gridtolerance="10"
     guidetolerance="10"
     inkscape:pageopacity="0"
     inkscape:pageshadow="2"
     inkscape:window-width="1366"
     inkscape:window-height="744"
     id="namedview8"
     showgrid="false"
     inkscape:zoom="8.5818182"
     inkscape:cx="28.326456"
     inkscape:cy="28.160832"
     inkscape:window-x="0"
     inkscape:window-y="24"
     inkscape:window-maximized="1"
     inkscape:current-layer="svg2" />
  <metadata
     id="metadata4006">
    <rdf:RDF>
      <cc:Work
         rdf:about="">
        <dc:format>image/svg+xml</dc:format>
        <dc:type
           rdf:resource="http://purl.org/dc/dcmitype/StillImage" />
        <dc:title></dc:title>
      </cc:Work>
    </rdf:RDF>
  </metadata>
  <defs
     id="defs5" />
  <rect
     width="45"
     height="45"
     x="5"
     y="5"
     id="rect2990"
     style="fill:#282828;fill-opacity:1;stroke:none" />
  <path
     inkscape:connector-curvature="0"
     style="fill:#ffffff"
     d="M 13.963124,37.777691 C 13.405422,37.623908 12.46573,37.262584 11.874918,36.974748 10.376451,36.244718 8.042366,33.87252 7.328651,32.354246 4.4554782,26.24219 8.361026,19.3561 15.306843,18.287446 c 3.445568,-0.530121 7.067647,0.757419 9.869756,3.508399 0.819895,0.804935 1.699353,1.760262 1.954352,2.122951 l 0.463636,0.659433 0.370522,-0.549528 c 0.203789,-0.30224 1.124201,-1.291391 2.045362,-2.19811 3.794878,-3.735386 8.734922,-4.695262 13.102477,-2.545876 3.54555,1.744856 5.615977,4.959549 5.627111,8.737061 0.0086,2.927532 -0.829996,4.983172 -2.861888,7.015064 -3.180227,3.180228 -7.98486,3.969971 -12.328141,2.026394 -1.511583,-0.676418 -3.576489,-2.341139 -4.848328,-3.908711 l -1.146889,-1.413563 -0.593034,0.814854 c -1.689291,2.321166 -4.591297,4.398966 -7.243658,5.186364 -1.415274,0.420149 -4.295654,0.437924 -5.754997,0.03551 z m 4.097102,-3.217722 c 2.538533,-0.469275 4.718248,-2.056279 6.593205,-4.800375 l 1.042848,-1.526259 -0.616444,-1.058215 c -1.016355,-1.744724 -3.303607,-3.951414 -4.920958,-4.747634 -1.279886,-0.630086 -1.639014,-0.70632 -3.308734,-0.702364 -2.430042,0.0058 -3.755593,0.567478 -5.283057,2.238768 -3.477697,3.805155 -1.277032,9.730122 3.942082,10.61347 0.553649,0.09371 1.062655,0.18201 1.131124,0.19623 0.06847,0.01422 0.707438,-0.08191 1.419934,-0.213621 z m -4.07225,-6.354858 0,-0.879244 3.077355,0 3.077355,0 0,0.879244 0,0.879244 -3.077355,0 -3.077355,0 0,-0.879244 z m 26.610148,6.139836 c 2.076885,-0.529055 4.138368,-2.754764 4.612167,-4.979596 0.663563,-3.11592 -1.509527,-6.496619 -4.788759,-7.449918 -3.540302,-1.029193 -7.531595,0.897251 -10.065356,4.858159 l -0.827405,1.293439 0.510808,0.962882 c 0.820205,1.546104 3.100984,3.848103 4.608968,4.651849 2.010199,1.071427 3.63568,1.252613 5.949577,0.663185 z m -3.529984,-4.161536 0,-1.099056 -1.099056,0 -1.099055,0 0,-0.879244 0,-0.879244 1.099055,0 1.099056,0 0,-1.099055 0,-1.099056 0.98915,0 0.98915,0 0,1.099056 0,1.099055 1.099055,0 1.099056,0 0,0.879244 0,0.879244 -1.099056,0 -1.099055,0 0,1.099056 0,1.099056 -0.98915,0 -0.98915,0 0,-1.099056 z"
     id="path2818" />
</svg>
