<?xml version="1.0" encoding="UTF-8" standalone="no"?>
<!-- Created with Inkscape (http://www.inkscape.org/) -->

<svg
   xmlns:dc="http://purl.org/dc/elements/1.1/"
   xmlns:cc="http://creativecommons.org/ns#"
   xmlns:rdf="http://www.w3.org/1999/02/22-rdf-syntax-ns#"
   xmlns:svg="http://www.w3.org/2000/svg"
   xmlns="http://www.w3.org/2000/svg"
   xmlns:xlink="http://www.w3.org/1999/xlink"
   xmlns:sodipodi="http://sodipodi.sourceforge.net/DTD/sodipodi-0.dtd"
   xmlns:inkscape="http://www.inkscape.org/namespaces/inkscape"
   version="1.0"
   width="55"
   height="55"
   id="svg2"
   inkscape:version="0.47 r22583"
   sodipodi:docname="arduinoon.svg">
  <metadata
     id="metadata20">
    <rdf:RDF>
      <cc:Work
         rdf:about="">
        <dc:format>image/svg+xml</dc:format>
        <dc:type
           rdf:resource="http://purl.org/dc/dcmitype/StillImage" />
        <dc:title />
      </cc:Work>
    </rdf:RDF>
  </metadata>
  <sodipodi:namedview
     pagecolor="#ffffff"
     bordercolor="#666666"
     borderopacity="1"
     objecttolerance="10"
     gridtolerance="10"
     guidetolerance="10"
     inkscape:pageopacity="0"
     inkscape:pageshadow="2"
     inkscape:window-width="1440"
     inkscape:window-height="814"
     id="namedview18"
     showgrid="false"
     inkscape:zoom="4.2909091"
     inkscape:cx="-14.682203"
     inkscape:cy="26.567796"
     inkscape:window-x="-4"
     inkscape:window-y="-3"
     inkscape:window-maximized="1"
     inkscape:current-layer="svg2" />
  <defs
     id="defs5">
    <inkscape:perspective
       sodipodi:type="inkscape:persp3d"
       inkscape:vp_x="0 : 27.5 : 1"
       inkscape:vp_y="0 : 1000 : 0"
       inkscape:vp_z="55 : 27.5 : 1"
       inkscape:persp3d-origin="27.5 : 18.333333 : 1"
       id="perspective22" />
    <linearGradient
       x1="0"
       y1="22"
       x2="74"
       y2="22"
       id="linearGradient2431"
       xlink:href="#linearGradient3166"
       gradientUnits="userSpaceOnUse"
       gradientTransform="matrix(0.3333,0,0,0.3333,27.031478,32.193732)" />
    <linearGradient
       x1="0"
       y1="22"
       x2="74"
       y2="22"
       id="linearGradient2428"
       xlink:href="#linearGradient3166"
       gradientUnits="userSpaceOnUse"
       gradientTransform="matrix(0.3333,0,0,0.3333,27.031478,45.064925)" />
    <linearGradient
       x1="0"
       y1="22"
       x2="74"
       y2="22"
       id="linearGradient3172"
       xlink:href="#linearGradient3166"
       gradientUnits="userSpaceOnUse" />
    <linearGradient
       id="linearGradient3166">
      <stop
         id="stop3168"
         style="stop-color:#ffffff;stop-opacity:1"
         offset="0" />
      <stop
         id="stop3170"
         style="stop-color:#ffff00;stop-opacity:1"
         offset="1" />
    </linearGradient>
    <linearGradient
       x1="0"
       y1="22"
       x2="74"
       y2="22"
       id="linearGradient2557"
       xlink:href="#linearGradient3166"
       gradientUnits="userSpaceOnUse"
       gradientTransform="matrix(0.3333,0,0,0.3333,9.2560985,9.9123239)" />
    <linearGradient
       x1="0"
       y1="22"
       x2="74"
       y2="22"
       id="linearGradient2561"
       xlink:href="#linearGradient3166"
       gradientUnits="userSpaceOnUse"
       gradientTransform="matrix(0.3333,0,0,0.3333,8.962951,22.783517)" />
    <linearGradient
       x1="0"
       y1="22"
       x2="74"
       y2="22"
       id="linearGradient2461"
       xlink:href="#linearGradient3166"
       gradientUnits="userSpaceOnUse"
       gradientTransform="matrix(0.3333,0,0,0.3333,27.031478,32.193732)" />
    <linearGradient
       x1="0"
       y1="22"
       x2="74"
       y2="22"
       id="linearGradient2463"
       xlink:href="#linearGradient3166"
       gradientUnits="userSpaceOnUse"
       gradientTransform="matrix(0.3333,0,0,0.3333,27.031478,45.064925)" />
    <inkscape:perspective
       id="perspective3629"
       inkscape:persp3d-origin="0.5 : 0.33333333 : 1"
       inkscape:vp_z="1 : 0.5 : 1"
       inkscape:vp_y="0 : 1000 : 0"
       inkscape:vp_x="0 : 0.5 : 1"
       sodipodi:type="inkscape:persp3d" />
  </defs>
  <rect
     width="55"
     height="55"
     rx="0"
     x="0"
     y="0"
     id="rect2839"
     style="fill:#ffd200;fill-opacity:1;fill-rule:evenodd;stroke:none" />
  <image
     y="12.326273"
     x="7.4279695"
     id="image3631"
     height="31.978811"
     width="39.911018"
     xlink:href="file:///home/ischinca/Desktop/inkscape_pasted_image_20100507_103647.png" />
  <path
     style="fill:#000000"
     d="m 10.971471,34.732479 0,-9.572604 -1.6785007,0 -1.6785007,0 0,-3.576578 0,-3.576577 1.6785007,0 1.6785007,0 0,-2.73503 0,-2.73503 17.129102,0 c 16.357544,0 17.143006,0.01733 17.437758,0.384743 0.260917,0.325236 0.308656,0.920845 0.308656,3.850887 l 0,3.466144 0.65275,0.713702 0.65275,0.713703 0,9.805643 0,9.805644 -0.65275,0.713702 c -0.520716,0.569338 -0.65275,0.875578 -0.65275,1.51398 l 0,0.800276 -17.437758,0 -17.437758,0 0,-9.572605 z m 17.869024,8.044247 c 0.07423,-0.434781 -0.464163,-0.727749 -0.748316,-0.407202 -0.284154,0.320548 -0.02445,0.927893 0.360969,0.844161 0.178639,-0.03881 0.352946,-0.23544 0.387347,-0.436959 z m 1.305501,0 c 0.07422,-0.434781 -0.464163,-0.727749 -0.748317,-0.407202 -0.284153,0.320548 -0.02445,0.927893 0.360969,0.844161 0.17864,-0.03881 0.352946,-0.23544 0.387348,-0.436959 z m 1.305501,0 c 0.07422,-0.434781 -0.464164,-0.727749 -0.748317,-0.407202 -0.284153,0.320548 -0.02445,0.927893 0.360969,0.844161 0.178639,-0.03881 0.352946,-0.23544 0.387348,-0.436959 z m 1.39072,0.21344 c 0.131726,-0.426004 -0.06501,-0.788951 -0.427649,-0.788951 -0.185627,0 -0.374097,0.118342 -0.418823,0.262983 -0.131727,0.426005 0.06501,0.788951 0.427648,0.788951 0.185628,0 0.374097,-0.118342 0.418824,-0.262983 z m 1.407018,-0.211022 c 0.03427,-0.202849 -0.07085,-0.426457 -0.233595,-0.496909 -0.38436,-0.166383 -0.858828,0.281329 -0.722586,0.681841 0.142804,0.419802 0.878032,0.277603 0.956181,-0.184932 z m 1.305264,-0.0024 c 0.07422,-0.434781 -0.464164,-0.727749 -0.748317,-0.407202 -0.284154,0.320548 -0.02445,0.927893 0.360969,0.844161 0.178639,-0.03881 0.352946,-0.23544 0.387348,-0.436959 z m 2.611001,0 c 0.07422,-0.434781 -0.464164,-0.727749 -0.748317,-0.407202 -0.284153,0.320548 -0.02445,0.927893 0.360969,0.844161 0.178639,-0.03881 0.352946,-0.23544 0.387348,-0.436959 z m 1.39072,0.21344 c 0.131727,-0.426004 -0.06501,-0.788951 -0.427649,-0.788951 -0.185627,0 -0.374097,0.118342 -0.418823,0.262983 -0.131727,0.426004 0.06501,0.788951 0.427648,0.788951 0.185628,0 0.374097,-0.118342 0.418824,-0.262983 z m 1.407018,-0.211023 c 0.03427,-0.202848 -0.07085,-0.426456 -0.233595,-0.496908 -0.38436,-0.166383 -0.858828,0.281329 -0.722586,0.681841 0.142804,0.419801 0.878032,0.277603 0.956181,-0.184933 z m 1.305264,-0.0024 c 0.07422,-0.434781 -0.464164,-0.727749 -0.748317,-0.407202 -0.284154,0.320548 -0.02445,0.927893 0.360969,0.844161 0.178639,-0.03881 0.352946,-0.23544 0.387348,-0.436959 z m 1.3055,0 c 0.07422,-0.434781 -0.464163,-0.727749 -0.748317,-0.407202 -0.284153,0.320548 -0.02445,0.927893 0.36097,0.844161 0.178639,-0.03881 0.352945,-0.23544 0.387347,-0.436959 z m 1.305501,0 c 0.07422,-0.434781 -0.464164,-0.727749 -0.748317,-0.407202 -0.284153,0.320548 -0.02445,0.927893 0.360969,0.844161 0.178639,-0.03881 0.352946,-0.23544 0.387348,-0.436959 z m 1.620234,-2.996129 c 0,-1.164478 -1.219132,-1.248425 -1.369837,-0.09432 -0.08234,0.630586 0.424198,1.073074 0.968426,0.845966 0.278841,-0.116363 0.401411,-0.345872 0.401411,-0.751644 z m -1.21225,-4.104227 c 0,-0.232996 -0.102805,-0.609329 -0.228456,-0.836297 -0.180272,-0.325635 -0.180272,-0.467021 0,-0.670383 0.125651,-0.141744 0.228456,-0.475466 0.228456,-0.741605 l 0,-0.48389 -9.791255,0 -9.791254,0 0,1.577901 0,1.577902 9.791254,0 c 9.688915,0 9.791255,-0.0044 9.791255,-0.423628 z m 1.0817,-12.031277 c 0.562057,-0.634045 0.0042,-1.572476 -0.799528,-1.344923 -0.361676,0.102402 -0.468673,0.267868 -0.468673,0.724783 0,0.325649 0.05595,0.655205 0.124335,0.732346 0.202639,0.228596 0.902626,0.159931 1.143866,-0.112206 z M 19.541955,14.546916 c 0.123009,-0.1672 0.196229,-0.522228 0.162712,-0.788951 -0.05038,-0.400877 -0.174107,-0.484951 -0.713692,-0.484951 -0.539586,0 -0.663316,0.08407 -0.713692,0.484951 -0.07296,0.580566 0.261628,1.092951 0.713692,1.092951 0.18003,0 0.427972,-0.1368 0.55098,-0.304 z m 4.484522,-0.645993 c 0,-0.308277 -0.512023,-0.580649 -0.76283,-0.405788 -0.251131,0.175086 -0.205811,0.885296 0.06346,0.994419 0.288444,0.116895 0.699375,-0.228966 0.699375,-0.588631 z m 1.305501,0.09835 c 0,-0.474776 -0.243475,-0.663932 -0.635921,-0.494048 -0.346274,0.149897 -0.384696,0.53097 -0.08735,0.866396 0.286513,0.323209 0.723275,0.09836 0.723275,-0.372348 z m 1.3055,0 c 0,-0.551912 -0.359356,-0.726627 -0.701251,-0.340941 -0.235445,0.2656 -0.247476,0.391057 -0.06172,0.643549 0.290721,0.395164 0.762969,0.207862 0.762969,-0.302608 z m 2.575613,-0.330382 c -0.351249,-0.396236 -0.710612,-0.226641 -0.710612,0.335358 0,0.507901 0.392144,0.664618 0.73934,0.295472 0.239435,-0.254574 0.235895,-0.332314 -0.02873,-0.63083 z m 1.527389,0.232029 c 0,-0.308277 -0.512023,-0.580649 -0.76283,-0.405788 -0.25113,0.175086 -0.20581,0.885296 0.06346,0.994419 0.288444,0.116895 0.699375,-0.228966 0.699375,-0.588631 z m 1.305501,0.09835 c 0,-0.474776 -0.243474,-0.663932 -0.635921,-0.494048 -0.346275,0.149897 -0.384696,0.53097 -0.08735,0.866396 0.286513,0.323209 0.723274,0.09836 0.723274,-0.372348 z m 1.3055,0 c 0,-0.551912 -0.359356,-0.726627 -0.701251,-0.340941 -0.235444,0.2656 -0.247477,0.391057 -0.06172,0.643549 0.29072,0.395164 0.762968,0.207862 0.762968,-0.302608 z m 2.238001,-0.09835 c 0,-0.308277 -0.512023,-0.580649 -0.76283,-0.405788 -0.25113,0.175086 -0.20581,0.885296 0.06345,0.994419 0.288445,0.116895 0.699375,-0.228966 0.699375,-0.588631 z m 1.305501,0.09835 c 0,-0.474776 -0.243474,-0.663932 -0.635921,-0.494048 -0.346274,0.149897 -0.384695,0.53097 -0.08735,0.866396 0.286513,0.323209 0.723274,0.09836 0.723274,-0.372348 z m 1.3055,0 c 0,-0.551912 -0.359355,-0.726627 -0.701251,-0.340941 -0.235443,0.2656 -0.247476,0.391057 -0.06172,0.643549 0.29072,0.395164 0.762968,0.207862 0.762968,-0.302608 z m 2.575613,-0.330382 c -0.351248,-0.396236 -0.710612,-0.226641 -0.710612,0.335358 0,0.507901 0.392145,0.664618 0.739341,0.295472 0.239434,-0.254574 0.235894,-0.332314 -0.02873,-0.63083 z m 1.527389,0.232029 c 0,-0.308277 -0.512023,-0.580649 -0.76283,-0.405788 -0.25113,0.175086 -0.20581,0.885296 0.06345,0.994419 0.288445,0.116895 0.699375,-0.228966 0.699375,-0.588631 z m 1.305501,0.09835 c 0,-0.474776 -0.243474,-0.663932 -0.635921,-0.494048 -0.346274,0.149897 -0.384695,0.53097 -0.08735,0.866396 0.286513,0.323209 0.723274,0.09836 0.723274,-0.372348 z m 1.3055,0 c 0,-0.551912 -0.359355,-0.726627 -0.701251,-0.340941 -0.235443,0.2656 -0.247476,0.391057 -0.06172,0.643549 0.29072,0.395164 0.762968,0.207862 0.762968,-0.302608 z m -16.867196,0.20029 c 0.06948,-0.126817 -0.0053,-0.379038 -0.166134,-0.560491 -0.235443,-0.2656 -0.346657,-0.279173 -0.570482,-0.06962 -0.152913,0.143161 -0.232071,0.395382 -0.175906,0.560491 0.120417,0.353994 0.731194,0.400594 0.912522,0.06962 z m 11.563005,0 c 0.06948,-0.126817 -0.0095,-0.383789 -0.175494,-0.57105 -0.278089,-0.313708 -0.325546,-0.313708 -0.603634,0 -0.352504,0.397652 -0.200406,0.801626 0.301817,0.801626 0.193042,0 0.407833,-0.103759 0.477311,-0.230576 z"
     id="path2824" />
</svg>
